<?xml version="1.0" encoding="UTF-8"?>
<svg width="406px" height="593px" viewBox="0 0 406 593" version="1.1" xmlns="http://www.w3.org/2000/svg" xmlns:xlink="http://www.w3.org/1999/xlink">
    <title>Group 18</title>
    <defs>
        <polygon id="path-1" points="0 0 345 0 345 628 0 628"></polygon>
    </defs>
    <g id="Landing-Page" stroke="none" stroke-width="1" fill="none" fill-rule="evenodd">
        <g id="MacBook-Pro-14&quot;" transform="translate(-1101.000000, -459.000000)">
            <g id="Group-18" transform="translate(1302.500000, 755.000000) rotate(25.000000) translate(-1302.500000, -755.000000) translate(1130.000000, 441.000000)">
                <g id="Group-3" transform="translate(0.000000, 0.000000)">
                    <mask id="mask-2" fill="white">
                        <use xlink:href="#path-1"></use>
                    </mask>
                    <g id="Clip-2"></g>
                    <path d="M341.242975,349.086214 C340.791056,369.826778 337.088143,390.581488 325.609394,408.204319 C315.870535,423.156424 301.536221,435.268053 285.038344,442.089155 C284.210767,442.431483 283.374717,442.759666 282.535842,443.073703 C281.911628,443.308523 281.225276,442.935074 281.084051,442.284367 C277.615571,426.43259 274.144266,410.580812 270.678611,394.729035 C262.953616,359.418302 254.954646,323.612467 255.700312,287.246458 C256.064672,269.626456 258.818555,252.343124 263.865928,235.467191 C268.526345,219.892671 274.627255,204.807596 280.236703,189.561259 C280.264948,189.482042 280.296017,189.402826 280.324262,189.323609 C280.538924,188.740802 281.194206,188.452228 281.767579,188.692707 C297.816361,195.411959 315.540069,201.6644 325.795811,216.658943 C331.617096,225.171882 333.967076,235.421925 335.209854,245.522022 C336.605154,256.883924 337.297156,268.358993 338.119084,279.774649 C338.972081,291.623167 339.709275,303.480172 340.330664,315.342835 C340.915334,326.577425 341.488707,337.83182 341.242975,349.086214 M285.365986,478.656034 C286.425172,483.502384 287.481533,488.348733 288.537894,493.195082 C288.580262,493.387465 288.614155,493.582677 288.639576,493.780718 C290.924593,512.328684 288.238498,531.527356 281.708265,548.960634 C274.833443,567.321875 263.447903,584.045034 248.639074,596.897903 C233.206032,610.291141 214.059061,618.897442 194.005145,622.450866 C173.953771,626.00146 152.942351,624.442594 133.718836,617.672417 C114.887926,611.043697 98.1866856,599.172546 85.3380567,583.914892 C72.695616,568.900546 63.7504395,550.748662 59.6492724,531.538673 C54.9069449,509.341092 57.9432773,487.027516 63.9283827,465.375962 C65.555292,459.499799 67.326533,453.668903 69.1508745,447.85781 C69.2469073,447.552261 70.4501423,443.752701 70.5489996,443.441493 C75.6189686,427.516158 80.9290197,411.675697 84.6008635,395.3175 C89.9617555,371.411107 92.890757,346.94737 93.3596233,322.452512 C93.506497,314.774174 93.4104642,307.095837 93.0715247,299.425987 C92.7297608,291.716529 92.1422658,284.018388 91.2977417,276.348538 C90.4532176,268.678688 89.354489,261.03713 87.9959068,253.440838 C86.7135859,246.285895 85.470808,239.116806 83.7987068,232.04108 C82.1153077,224.911599 79.7568541,218.090497 77.2063349,211.235445 C77.0990041,210.941213 76.9888488,210.649809 76.8786935,210.355577 C74.3592437,203.591058 71.7974265,196.837855 69.3485891,190.045045 C66.9054007,183.263551 64.5695432,176.43679 62.5076616,169.525155 C60.4514291,162.641811 58.6663481,155.673593 57.3190639,148.614841 C56.0991644,142.206796 55.2402353,135.722364 54.861753,129.206811 C53.2040567,100.736985 62.1884937,72.5330995 79.2879879,49.8008076 C96.6586337,26.7120415 121.870078,10.8744099 150.244958,5.50466623 C179.201683,0.0245853911 210.319147,5.20477539 235.474102,20.7453454 C259.561397,35.6238922 277.56473,59.6802305 286.139898,86.5996777 C290.416183,100.026866 292.348138,114.14154 291.593998,128.225093 C290.746649,144.119308 286.727393,159.631586 281.713914,174.674224 C271.523135,205.23197 257.522112,234.513765 253.570643,266.814272 C249.27741,301.895843 254.968768,337.308425 262.069549,371.628952 C267.091502,395.917282 272.449569,420.14054 277.810461,444.363799 C277.8726,444.643886 278.728422,448.505688 278.793385,448.79992 C280.996492,458.752901 283.193949,468.703053 285.365986,478.656034 M25.3570756,414.114432 C12.9773129,397.026312 7.24358754,376.503593 4.96139538,355.729079 C3.69319701,344.203085 3.39662501,332.595046 3.38789559,321.009641 C3.38250253,309.463843 3.46723739,297.895412 3.95587507,286.358102 C4.88230951,264.573578 7.72940072,241.960111 18.4116418,222.58886 C27.1506301,206.742741 41.0810407,192.681821 58.7623809,187.459193 C60.3921147,186.978236 62.0331464,186.568008 63.6939496,186.231338 C64.2249547,186.121001 64.7531354,186.42938 64.933903,186.944287 C66.3772201,191.094663 67.8742026,195.222406 69.3881321,199.316199 C74.452452,213.009328 79.5424749,226.739236 82.4598961,241.063268 C83.2281588,244.834537 83.9399316,248.619951 84.59239,252.416682 C85.9001313,260.004487 86.9790885,267.634728 87.8207881,275.287603 C88.6624877,282.943307 89.2697541,290.624474 89.6312895,298.316957 C89.7781633,301.389423 89.9504575,304.478865 89.9504575,307.55699 C90.5012341,332.699725 88.4562995,357.899044 83.7817599,382.608918 C81.4317798,395.028926 78.4180434,407.315963 74.7744445,419.419105 C72.4668319,427.086125 69.9445576,434.685246 67.4731243,442.298513 C67.2980056,442.838882 66.7387555,443.158577 66.1908034,443.025607 C49.5036855,439.036493 35.3670868,427.923556 25.3570756,414.114432 M344.451602,324.373511 C343.881054,312.114765 343.163632,299.858848 342.330406,287.611419 C341.516952,275.60164 340.647007,263.583373 339.514384,251.599055 C338.522987,241.097218 337.034478,230.422801 332.402305,220.829123 C323.869505,203.158196 305.510286,194.246346 288.080326,187.600651 C286.343261,186.938628 284.580776,186.350163 282.809818,185.778673 C282.225147,185.589119 281.914453,184.949729 282.123465,184.369752 C286.925107,170.965197 291.212691,157.325822 293.509006,143.250756 C295.878757,128.74 295.929598,114.07364 293.14747,99.6194671 C287.826121,71.989901 272.873243,46.1115843 251.395782,27.9370674 C228.997534,8.98170255 199.817674,-0.611975367 170.59827,0.0302437089 C141.58788,0.669633626 113.467205,11.4628749 92.0038655,31.1142128 C71.4387156,49.9450947 57.2738719,75.9450652 52.9297982,103.540681 C48.7071778,130.366766 54.7628956,156.686432 63.2561529,182.035696 C63.4651655,182.658111 63.0810342,183.328621 62.4342248,183.453104 C44.4619615,186.944287 29.4638917,199.41239 19.4482315,214.418249 C7.11648526,232.886998 2.71027266,255.177942 1.11160835,277.004903 C0.250137299,288.771375 0.151279966,300.583113 0.0439491461,312.375048 C-0.0662061687,324.322586 -0.0294877304,336.287099 0.871526255,348.203516 C2.512558,369.948432 7.13908122,391.956459 18.8070711,410.660029 C28.7634169,426.619314 43.552474,440.236056 61.8269583,445.70482 C62.8353031,446.00754 63.8549459,446.27631 64.8802376,446.522447 C65.4959776,446.672393 65.8546885,447.311783 65.6626228,447.917223 C64.9056581,450.282399 64.1599913,452.653235 63.4369206,455.029728 C56.6553075,477.235797 51.7180898,500.284954 54.8645775,523.571761 C57.53655,543.350412 65.2926139,562.416114 76.9182364,578.610219 C88.5664548,594.832617 104.09553,608.438042 122.228789,616.914202 C141.034279,625.70157 162.147381,629.271968 182.811388,627.599935 C203.554481,625.919415 223.989704,619.126604 241.168284,607.263941 C257.618145,595.904868 270.842431,580.171915 279.714171,562.274656 C284.470621,552.678149 288.018187,542.479031 290.201522,531.991338 C292.523257,520.855769 293.37343,509.338263 292.4244,497.993336 C291.955533,492.419893 290.981083,486.917178 289.806092,481.454073 C288.628278,475.982479 286.967475,470.533519 286.057987,465.011001 C284.837805,459.437558 283.592203,453.872602 282.400266,448.293501 C282.281637,447.761619 282.578209,447.226908 283.086618,447.037354 C299.406552,440.937688 313.822776,430.167079 324.471123,416.352296 C330.244391,408.860684 334.842669,400.540127 338.065418,391.639593 C341.895434,381.067026 343.753952,369.869215 344.530688,358.677063 C345.324371,347.255748 344.982607,335.797654 344.451602,324.373511" id="Fill-1" fill="#231F20" mask="url(#mask-2)"></path>
                </g>
                <path d="M342.503799,348.808646 C342.044754,369.505491 338.283452,390.216451 326.623702,407.802134 C316.731276,422.722721 302.170934,434.80882 285.412912,441.615544 C284.572285,441.957151 283.723052,442.284641 282.870949,442.598016 C282.236893,442.832341 281.539717,442.459679 281.396266,441.810345 C277.873093,425.991982 274.347052,410.173619 270.826748,394.355255 C262.979943,359.118955 254.854842,323.388596 255.612267,287.099244 C255.982372,269.516384 258.779679,252.269485 263.906641,235.429125 C268.640545,219.887435 274.837656,204.834158 280.535556,189.619959 C280.564246,189.540909 280.595806,189.46186 280.624496,189.38281 C280.842542,188.801232 281.508158,188.513266 282.090572,188.753238 C298.392417,195.458326 316.395599,201.697588 326.813058,216.660523 C332.726135,225.155517 335.11317,235.383954 336.375545,245.462761 C337.792847,256.800713 338.49576,268.251593 339.330649,279.643186 C340.197097,291.466728 340.945914,303.298739 341.577101,315.136397 C342.170991,326.347305 342.753405,337.577976 342.503799,348.808646" id="Fill-4" fill="#F4F4F4"></path>
                <path d="M84.2118873,382.614472 C81.8524198,395.041895 78.8265162,407.336267 75.1682072,419.446635 C72.8512782,427.118233 70.3188209,434.72189 67.8374098,442.339702 C67.6615841,442.880394 67.1000762,443.20028 66.5499119,443.06723 C49.7954241,439.075734 35.6017524,427.956164 25.5513284,414.138795 C13.1215856,397.040473 7.36471185,376.505502 5.07330592,355.718586 C3.79998753,344.185711 3.5022182,332.570742 3.49345354,320.97842 C3.4880387,309.425729 3.57311566,297.850392 4.06372608,286.306194 C4.99390077,264.508665 7.85248638,241.881697 18.5778542,222.498881 C27.3521239,206.643302 41.338775,192.573988 59.0914991,187.348242 C60.7278125,186.866998 62.3754695,186.456525 64.0429777,186.119654 C64.5761266,186.009251 65.1064396,186.317814 65.2879371,186.833028 C66.7370812,190.985882 68.2401074,195.116089 69.760149,199.212326 C74.8449148,212.91363 79.9552038,226.651735 82.8846869,240.984318 C83.6560512,244.757839 84.3706976,248.545513 85.0257902,252.344511 C86.3388111,259.936845 87.4221243,267.571642 88.2672221,275.229086 C89.1123198,282.889361 89.722038,290.575113 90.085033,298.272188 C90.2324997,301.346489 90.4054895,304.437775 90.4054895,307.517738 C90.9584897,332.675483 88.9052992,357.889846 84.2118873,382.614472" id="Fill-6" fill="#F4F4F4"></path>
                <path d="M236.437409,311.955106 L236.459997,311.955106 C236.457174,312.365393 236.451527,312.78134 236.448703,313.200116 C236.451527,313.616062 236.457174,314.029179 236.459997,314.439466 L236.440233,314.439466 C236.332941,331.249925 237.13198,355.021118 238.84582,371.011002 C241.672103,397.334465 250.455886,422.463851 258.084874,447.808284 C265.50775,472.467962 271.507601,498.63014 268.994722,524.84042 C266.964655,545.977287 257.026077,566.010622 241.951626,580.86302 C225.925669,596.654834 204.34032,605.698131 181.992637,607.129892 C160.13906,608.530528 138.262894,602.452618 120.266163,589.954419 C103.268936,578.152295 89.8716198,561.248461 82.7169731,541.766891 C73.9218963,517.806116 75.1275136,491.658086 80.0149222,466.992749 C85.0915026,441.385167 93.5872927,416.71983 101.269926,391.830957 C106.93661,373.484044 110.830161,324.150541 111.064508,305.998867 C111.312972,286.616332 106.476386,255.094954 101.269926,236.544312 C94.2338649,211.465858 85.0915026,186.990103 80.0149222,161.38252 C75.1275136,136.717183 73.9218963,110.569153 82.7169731,86.6083785 C89.8716198,67.1268087 103.268936,50.2229745 120.266163,38.4180204 C138.262894,25.9226518 160.13906,19.8447416 181.992637,21.2453773 C204.34032,22.6771383 225.925669,31.7204349 241.951626,47.5122492 C257.026077,62.3646471 266.964655,82.3979826 268.994722,103.534849 C271.507601,129.74513 265.773155,158.50485 258.35028,183.164528 C250.721292,208.508961 241.672103,231.040804 238.84582,257.364267 C237.13198,273.348492 236.332941,295.317251 236.437409,311.955106 M282.081458,174.842771 C287.093099,159.797962 291.110882,144.283446 291.95792,128.386937 C292.711783,114.301352 290.780537,100.184642 286.505819,86.755516 C277.933796,59.8321845 259.937064,35.7723751 235.8586,20.8916814 C210.712869,5.34886909 179.606814,0.167931644 150.660706,5.64880321 C122.29623,11.0193217 97.0940295,26.8592386 79.7297528,49.9513361 C62.6365282,72.6869081 53.6551031,100.894863 55.3124739,129.368797 C55.6908175,135.88529 56.5491492,142.370658 57.7688838,148.779628 C59.115674,155.839398 60.9001005,162.808622 62.9555791,169.692959 C65.0167046,176.605591 67.3517058,183.433337 69.7939983,190.215809 C72.2419378,197.0096 74.8028157,203.763777 77.3213417,210.529272 C77.4314566,210.823547 77.5415716,211.114992 77.648863,211.409267 C80.1984471,218.265308 82.5560359,225.087395 84.2388178,232.217904 C85.9103059,239.294651 87.1526282,246.464775 88.4344788,253.62075 C89.7925629,261.218138 90.8908887,268.860799 91.7351031,276.531755 C92.5793176,284.202712 93.1665972,291.901964 93.5082358,299.612534 C93.8470509,307.283491 93.9430486,314.962936 93.7962287,322.642381 C93.3275344,347.140774 90.3996067,371.608041 85.0406804,395.517883 C81.3701828,411.878441 76.0620787,427.721187 70.9939687,443.64882 C70.8951476,443.960073 69.6923538,447.760182 69.5963562,448.065775 C67.7724012,453.877706 66.0020921,459.709444 64.3757793,465.586455 C58.3928683,487.241132 55.3576492,509.557928 60.098238,531.758712 C64.1979014,550.971473 73.139798,569.125976 85.7776033,584.142489 C98.6215212,599.402344 115.316638,611.275208 134.140643,617.904884 C153.35711,624.676038 174.360826,626.235129 194.404566,622.684023 C214.451129,619.130086 233.591362,610.522543 249.018745,597.127372 C263.822144,584.272649 275.20351,567.547077 282.075811,549.183186 C288.603649,531.747394 291.28876,512.545951 289.004581,493.995309 C288.97917,493.797239 288.945288,493.601999 288.902936,493.409588 C287.846962,488.56254 286.790988,483.715491 285.732191,478.868443 C283.560951,468.914026 281.364299,458.962438 279.162,449.008021 C279.097061,448.713746 278.241553,444.851386 278.179436,444.571259 C272.82051,420.344505 267.464407,396.117751 262.444296,371.825918 C255.346118,337.500438 249.656847,302.082746 253.948506,266.996114 C257.898526,234.690946 271.894415,205.404926 282.081458,174.842771" id="Fill-8" fill="#CCCCC4"></path>
                <path d="M263.972303,536.182705 C258.904808,556.483647 246.302638,574.886854 229.191275,586.968997 C210.697044,600.026875 187.413195,605.408972 164.990736,602.934282 C143.901857,600.606659 124.147409,590.826685 108.998745,576.077534 C93.3430473,560.830616 83.4573256,540.982189 80.3244866,519.400066 C76.6676193,494.197824 81.720951,468.543068 88.4341774,444.288279 C95.2862006,419.524412 104.313649,395.872033 108.562526,369.945768 C110.287571,359.41066 113.579318,317.649208 114.052076,306.059175 C114.057741,305.900795 114.069072,305.275759 114.066239,305.108894 C113.83425,292.82312 112.128751,268.992563 109.673183,257.357279 C104.356138,232.174835 95.2862006,208.052972 88.4341774,183.289105 C81.720951,159.034316 76.6676193,133.37956 80.3244866,108.177318 C83.4573256,86.5951948 93.3430473,66.7467681 108.998745,51.4998504 C124.147409,36.7506989 143.901857,26.9707246 164.990736,24.6431021 C187.413195,22.1684122 210.697044,27.5505091 229.191275,40.6083869 C246.302638,52.6905298 258.904808,71.0937376 263.972303,91.394679 C270.076524,115.833302 263.485098,146.901265 258.97279,164.713376 C256.624861,173.984271 251.242949,192.347884 248.399034,201.480196 C245.452862,210.932097 239.612072,226.730517 237.685914,239.610217 C234.385952,261.678794 232.79404,290.263583 232.983823,312.801644 C232.79404,335.404754 234.385952,365.89859 237.685914,387.967167 C239.612072,400.846867 244.342489,413.203347 247.452667,425.851133 C250.548683,438.453668 254.817388,451.305086 257.463306,462.994106 C262.864762,486.884055 270.076524,511.744082 263.972303,536.182705 M239.105322,370.584945 C237.38566,354.602691 236.584322,330.84284 236.691677,314.040403 L236.711505,314.040403 C236.708672,313.630312 236.70329,313.217392 236.700174,312.801644 C236.70329,312.383068 236.708672,311.96732 236.711505,311.557229 L236.688844,311.557229 C236.584322,294.927313 237.38566,272.969037 239.105322,256.992439 C241.940457,230.681536 251.019175,208.160445 258.672536,182.828105 C266.119402,158.180194 271.872382,129.434197 269.351382,103.236423 C267.314753,82.1096427 257.344054,62.0858665 242.221166,47.2405557 C226.14313,31.4562768 204.488018,22.4172953 182.068107,20.9862175 C160.143899,19.5862501 138.197031,25.6612602 120.142134,38.1506663 C103.089972,49.9499875 89.6493564,66.8457557 82.471586,86.3180295 C73.6480837,110.267371 74.8575975,136.402924 79.7608021,161.056491 C84.85379,186.651855 94.0257002,211.115931 101.084502,236.182418 C106.307789,254.724209 111.16029,286.230546 110.910739,305.603832 C110.675918,323.746844 106.769783,373.056807 101.084502,391.394966 C93.3770383,416.271962 84.85379,440.925529 79.7608021,466.520893 C74.8575975,491.17446 73.6480837,517.310013 82.471586,541.259355 C89.6493564,560.731628 103.089972,577.627397 120.142134,589.42389 C138.197031,601.916124 160.143899,607.991134 182.068107,606.591167 C204.488018,605.160089 226.14313,596.121107 242.221166,580.336828 C257.344054,565.491518 267.314753,545.467741 269.351382,524.340961 C271.872382,498.143187 265.853139,471.993493 258.406273,447.345582 C250.752629,422.013243 241.940457,396.895848 239.105322,370.584945" id="Fill-10" fill="#231F20"></path>
                <path d="M207.338311,395.114619 C208.55975,415.925011 210.213783,436.704317 212.274962,457.435583 C214.019472,474.981988 217.041969,493.200972 213.519021,510.713465 C210.335362,526.552988 200.744799,539.498725 186.797204,545.444551 C182.324247,547.352077 177.630753,548.341164 172.925949,548.49094 L172.925949,548.49094 L172.866573,548.49094 L172.866573,548.49094 C168.161769,548.341164 163.468275,547.352077 158.995318,545.444551 C145.047723,539.498725 135.45716,526.552988 132.273501,510.713465 C128.750553,493.200972 131.77305,474.981988 133.51756,457.435583 C135.578739,436.704317 137.232772,415.925011 138.454211,395.114619 C140.029076,368.253839 140.871644,341.359149 141.044115,314.453154 C140.871644,287.549985 140.029076,260.655294 138.454211,233.794515 C137.232772,212.984123 135.578739,192.204816 133.51756,171.473551 C131.77305,153.927146 128.750553,135.708162 132.273501,118.192843 C135.45716,102.356146 145.047723,89.4104087 158.995318,83.4645823 C163.468275,81.5570572 168.161769,80.5651442 172.866573,80.4181941 L172.866573,80.4181941 L172.925949,80.4181941 L172.925949,80.4181941 C177.630753,80.5651442 182.324247,81.5570572 186.797204,83.4645823 C200.744799,89.4104087 210.335362,102.356146 213.519021,118.192843 C217.041969,135.708162 214.019472,153.927146 212.274962,171.473551 C210.213783,192.204816 208.55975,212.984123 207.338311,233.794515 C205.763446,260.655294 204.920879,287.549985 204.748407,314.453154 C204.920879,341.359149 205.763446,368.253839 207.338311,395.114619 M247.258461,426.42629 C244.153968,413.788583 239.4322,401.44195 237.509564,388.572514 C234.215635,366.521524 232.626633,336.05199 232.816069,313.466893 C232.626633,290.946793 234.215635,262.384784 237.509564,240.333794 C239.4322,227.464358 245.262312,211.678528 248.202814,202.234159 C251.04153,193.109124 256.413602,174.760146 258.757522,165.496639 C263.26158,147.698723 269.840955,116.655519 263.747894,92.2363718 C258.689664,71.9516087 246.110534,53.5630668 229.030172,41.4905524 C210.570036,28.4430808 187.328757,23.065273 164.947008,25.5379908 C143.896968,27.8637584 124.178637,37.6359388 109.057668,52.3733363 C93.4305932,67.6081034 83.5629452,87.4407124 80.4358338,109.005637 C76.7856523,134.187794 81.8297451,159.822105 88.5306981,184.057565 C95.3701939,208.801698 104.423549,232.904337 109.730591,258.066712 C112.181952,269.692724 113.88405,293.504289 114.115898,305.780273 C114.118725,305.947005 114.107415,306.571543 114.101761,306.729797 C113.629584,318.310594 110.344138,360.038765 108.622247,370.565477 C104.381138,396.471081 95.3701939,420.10461 88.5306981,444.848743 C81.8297451,469.084203 76.7856523,494.718514 80.4358338,519.900671 C83.5629452,541.465595 93.4305932,561.298204 109.057668,576.532971 C124.178637,591.270369 143.896968,601.042549 164.947008,603.368317 C187.328757,605.841035 210.570036,600.463227 229.030172,587.415755 C246.110534,575.343241 258.689664,556.954699 263.747894,536.669936 C269.840955,512.250789 262.642378,487.410573 257.250514,463.539663 C254.609717,451.859958 250.348816,439.018781 247.258461,426.42629" id="Fill-12" fill="#F4F4F4"></path>
                <path d="M203.836112,526.839718 C196.97307,537.862986 185.228049,544.715365 173.163202,545.290171 C161.100604,544.715365 149.356145,537.862986 142.492821,526.839718 C133.589696,512.53467 134.000017,494.285257 135.444572,477.763097 C137.122392,458.584932 139.280794,439.474724 140.722539,420.268243 C143.369953,385.015305 144.842613,349.657598 145.165811,314.285734 L145.165811,314.197956 C145.002806,296.512023 144.55595,278.828923 143.816529,261.162812 C143.074859,243.493869 142.046246,225.841915 140.722539,208.215446 C139.280794,189.006134 137.122392,169.898758 135.444572,150.720593 C134.000017,134.198433 133.589696,115.94902 142.492821,101.643972 C149.356145,90.6207034 161.100604,83.7654934 173.163202,83.193518 C185.228049,83.7654934 196.97307,90.6207034 203.836112,101.643972 C212.739519,115.94902 212.329198,134.198433 210.884643,150.720593 C209.206823,169.898758 207.048421,189.006134 205.606676,208.215446 C202.959262,243.468385 201.486602,278.826091 201.163404,314.197956 L201.163404,314.285734 C201.323598,331.971666 201.773265,349.654767 202.512124,367.320878 C203.251545,384.989821 204.282969,402.641774 205.606676,420.268243 C207.048421,439.474724 209.206823,458.584932 210.884643,477.763097 C212.329198,494.285257 212.739519,512.53467 203.836112,526.839718 M207.399723,395.061684 C205.83432,368.147694 204.996815,341.199725 204.825099,314.240429 C204.996815,287.283965 205.83432,260.335996 207.399723,233.422005 C208.613824,212.570387 210.257919,191.749917 212.306714,170.977583 C214.040743,153.396418 217.04508,135.141342 213.543018,117.591325 C210.378767,101.723255 200.845827,88.751873 186.982031,82.7942679 C182.535949,80.882964 177.870654,79.889086 173.194117,79.7418448 L173.194117,79.7418448 L173.135098,79.7418448 L173.135098,79.7418448 C168.458561,79.889086 163.792985,80.882964 159.347184,82.7942679 C145.483388,88.751873 135.950448,101.723255 132.785635,117.591325 C129.283853,135.141342 132.288472,153.396418 134.0225,170.977583 C136.071296,191.749917 137.71511,212.570387 138.929491,233.422005 C140.494895,260.335996 141.3324,287.283965 141.503835,314.240429 C141.3324,341.199725 140.494895,368.147694 138.929491,395.061684 C137.71511,415.913302 136.071296,436.733773 134.0225,457.506107 C132.288472,475.087271 129.283853,493.342347 132.785635,510.889533 C135.950448,526.760434 145.483388,539.731817 159.347184,545.689422 C163.792985,547.600726 168.458561,548.591772 173.135098,548.741845 L173.135098,548.741845 L173.194117,548.741845 L173.194117,548.741845 C177.870654,548.591772 182.535949,547.600726 186.982031,545.689422 C200.845827,539.731817 210.378767,526.760434 213.543018,510.889533 C217.04508,493.342347 214.040743,475.087271 212.306714,457.506107 C210.257919,436.733773 208.613824,415.913302 207.399723,395.061684" id="Fill-14" fill="#231F20"></path>
                <path d="M203.156647,526.553405 C196.296929,537.574368 184.557878,544.425313 172.498595,545 C160.442122,544.425313 148.703071,537.574368 141.843353,526.553405 C132.94426,512.25135 133.354382,494.005754 134.798238,477.487049 C136.475245,458.312896 138.632601,439.206685 140.073647,420.004222 C142.719779,384.758657 144.191725,349.408346 144.514767,314.04388 L144.514767,313.95612 C144.351841,296.273887 143.905201,278.594485 143.166419,260.932069 C142.424828,243.266822 141.396713,225.618561 140.073647,207.995778 C138.632601,188.790484 136.475245,169.687104 134.798238,150.512951 C133.354382,133.994246 132.94426,115.74865 141.843353,101.446595 C148.703071,90.4256319 160.442122,83.5718558 172.498595,83 C184.557878,83.5718558 196.296929,90.4256319 203.156647,101.446595 C212.05574,115.74865 211.645618,133.994246 210.201762,150.512951 C208.524755,169.687104 206.367399,188.790484 204.926353,207.995778 C202.280221,243.241343 200.808275,278.591654 200.485233,313.95612 L200.485233,314.04388 C200.645349,331.726113 201.094799,349.405515 201.833581,367.067931 C202.572363,384.733178 203.603287,402.381439 204.926353,420.004222 C206.367399,439.206685 208.524755,458.312896 210.201762,477.487049 C211.645618,494.005754 212.05574,512.25135 203.156647,526.553405 Z" id="Fill-16" fill="#FFE3EC"></path>
            </g>
        </g>
    </g>
</svg>