<?xml version="1.0" encoding="UTF-8"?>
<svg width="327px" height="675px" viewBox="0 0 327 675" version="1.1" xmlns="http://www.w3.org/2000/svg" xmlns:xlink="http://www.w3.org/1999/xlink">
    <title>Group 22</title>
    <defs>
        <polygon id="path-1" points="0 0 176 0 176 435 0 435"></polygon>
    </defs>
    <g id="Landing-Page" stroke="none" stroke-width="1" fill="none" fill-rule="evenodd">
        <g id="MacBook-Pro-14&quot;" transform="translate(-82.000000, -1371.000000)">
            <g id="Group-6" transform="translate(-68.911727, 1353.702229)">
                <g id="Group-22" transform="translate(300.411727, 350.797771) rotate(37.000000) translate(-300.411727, -350.797771) translate(195.911727, -9.702229)">
                    <g id="Group-3" transform="translate(33.000000, 286.000000)">
                        <mask id="mask-2" fill="white">
                            <use xlink:href="#path-1"></use>
                        </mask>
                        <g id="Clip-2"></g>
                        <path d="M149.852247,364.005112 C148.914726,357.795681 147.954991,351.589721 147.021288,345.379596 C145.75298,336.942616 144.619346,328.457377 142.760618,320.124206 C140.991789,312.193425 138.300365,304.388324 133.922374,297.497366 C129.516269,290.562315 123.385069,285.251056 116.628393,280.696663 C109.855055,276.130813 102.610354,272.316622 95.7971003,267.810141 C89.0733985,263.363028 82.6652118,258.396872 76.7884375,252.873482 C73.9928826,250.245974 71.3309617,247.476467 68.8328727,244.573641 C78.9074917,251.809008 89.9290035,257.429958 101.584322,262.134682 C118.712737,269.048902 136.917513,274.908022 151.326734,286.919634 C164.130959,297.593537 173.529424,314.592831 168.779688,331.595597 C166.336441,340.342267 159.584277,346.826322 154.66585,354.190843 C152.696397,357.139151 150.957765,360.495056 149.852247,364.005112 M158.062585,390.155895 C160.380875,393.141005 162.037243,396.431292 163.156992,400.035782 C165.375665,407.177062 165.069521,415.138396 162.212182,422.065462 C161.434675,423.950685 160.489518,425.746681 159.389553,427.443728 C157.121593,412.832383 154.881747,398.209928 152.732842,383.579141 C154.392334,385.846616 156.322565,387.915501 158.062585,390.155895 M42.0213698,208.513112 C24.631241,182.908453 15.7516922,150.997498 19.4465869,120.093383 C20.9325281,107.6648 24.8426258,95.7313046 27.7409227,83.6023432 C37.0321338,92.1160513 47.6798173,99.6107668 54.4000481,110.386742 C58.2684936,116.58923 60.0539833,123.677737 59.532637,130.980458 C58.9932414,138.534543 56.3098002,145.837611 53.5107742,152.803562 C50.5527759,160.164611 47.2872456,167.427058 45.0106073,175.041206 C42.6350451,182.98657 41.7436886,191.302729 42.4208835,199.572712 C42.7672908,203.798666 43.4830139,207.972195 44.5253595,212.060317 C43.6739197,210.890298 42.8349755,209.710558 42.0213698,208.513112 M168.289234,345.630265 C173.490202,338.262272 176.31526,330.106513 175.971977,321.023072 C175.644313,312.350353 172.673819,303.785608 168.004958,296.506496 C158.16498,281.165017 141.393386,271.945132 125.017487,265.118403 C107.736695,257.91463 89.7290731,252.302013 74.2532087,241.44549 C67.8363445,236.944217 61.8786955,231.829465 56.4302444,226.217195 C54.0939047,221.603433 52.1862352,216.763653 50.7957469,211.7107 C48.6322636,203.849355 47.7520144,195.488062 48.6982129,187.367369 C49.6204614,179.449781 52.2792584,171.953329 55.2435046,164.600613 C60.9897688,150.34687 68.0761916,135.434514 64.6534244,119.697591 C61.558668,105.469887 50.1005027,95.3521769 39.558338,86.2701245 C36.0616382,83.257587 32.5163442,80.2547707 29.1827821,77.0446841 C30.051924,72.6618014 30.7145407,68.2382978 31.0057588,63.7415379 C32.1845152,45.5465336 27.4160358,26.8477616 17.8783827,11.3243576 C15.5486379,7.53238638 12.8947003,4.02614964 9.96481714,0.68066026 C8.40112519,-1.10492005 5.41397028,1.49620141 6.81973107,3.39704765 C17.6475602,18.0417226 24.4094432,35.2482868 25.2921221,53.5224497 C25.5909765,59.7134799 25.1511989,65.7989653 24.1977113,71.8403581 C24.0272845,71.6452392 23.8558164,71.4515092 23.6874722,71.2543072 C18.7305167,65.4385857 14.5781423,58.8621785 11.4625598,51.8844237 C5.29977391,38.0813289 3.23104938,28.8173508 4.86763262,13.7675092 C5.27582391,10.0133813 5.92559779,6.26203087 6.7287905,2.57317402 C7.3372593,-0.221677524 3.07138272,-1.0469399 2.4611784,1.64618599 C-4.10806328,30.6373026 2.40008855,57.4210072 22.8672715,78.8580393 C22.6659527,79.7728758 22.4580389,80.6877123 22.2376295,81.6018545 C19.8821992,91.3761968 16.801674,100.979723 14.933227,110.868984 C9.19702877,141.234265 15.3157328,173.085852 30.0442878,200.067453 C35.6815622,210.394863 42.6468466,220.025123 50.7131367,228.605144 C53.6221938,234.451417 57.1803306,239.982446 61.2462767,245.072201 C71.3757378,257.750411 84.2087719,267.912561 97.9852277,276.364469 C105.040411,280.692497 112.455886,284.542448 118.915791,289.765175 C125.325019,294.946934 130.082044,301.442794 133.209081,309.06458 C136.280929,316.550616 138.135839,324.492507 139.550971,332.439954 C141.187554,341.634495 142.63462,350.86549 144.144511,360.081557 C147.317019,379.447274 150.582202,398.798062 153.76061,418.163432 C154.514861,422.760182 155.320483,427.346863 156.067099,431.944654 C155.219824,433.997916 158.059114,436.15568 159.888685,434.28365 C170.698465,423.222982 172.699852,405.051933 165.474589,391.54603 C161.440229,384.005139 152.871683,378.862612 154.27432,369.29797 C155.657519,359.866648 163.043143,353.061792 168.289234,345.630265" id="Fill-1" fill="#ACC4DA" mask="url(#mask-2)"></path>
                    </g>
                    <path d="M75.6873988,260.142389 C75.6631091,263.961668 75.2189536,267.746162 73.8795472,271.353258 C72.5991303,274.79687 70.458162,277.513497 67.7550595,279.562272 C66.6932503,280.372739 65.5412221,281.078853 64.3232645,281.687572 C62.1753563,282.762397 59.8157803,283.527644 57.3486354,284.014619 C54.5206142,284.571162 51.6197237,284.852912 48.6980134,284.953786 C47.3933067,285 46.08166,285.00944 44.7700134,284.992048 C40.9599922,284.950308 37.143031,284.685949 33.4301688,284.432027 C31.3239002,284.285934 29.1898719,284.07723 27.0697235,283.757218 C25.7025574,283.551992 24.3423312,283.301548 22.9959849,282.988492 C18.0339354,281.837143 13.3147834,279.885763 9.44577277,276.504763 C5.98621797,273.485515 4.78561018,269.638409 3.97363844,265.165192 C3.23453596,261.11634 3.55377271,252.862107 3.55377271,252.862107 C3.54336282,252.162949 3.2206561,229.689034 3.07491759,212.74229 C3.04021794,208.686481 3.01592819,204.947205 3.00898826,201.896652 C3.00551829,201.242714 3.00551829,200.585297 3.00551829,199.931358 C2.96387872,177.676582 3.15819674,155.428763 3.57806247,133.180944 C3.59194233,132.471351 3.60582219,131.75828 3.62317201,131.048687 C3.61970204,131.045209 3.61970204,131.045209 3.62317201,131.04173 C3.72727095,125.511081 3.85218968,119.980432 3.99098827,114.453261 L3.99098827,114.449783 C4.40738403,97.8856621 4.96257838,81.3319766 5.64269146,64.7782912 C6.42343352,45.7688584 5.85088934,22.992323 21.6045291,9.15874307 C27.9823242,3.56200429 36.5392571,0.584497525 45.0302607,2.66457819 C53.458805,4.72726687 60.3883245,10.863157 64.8402892,17.9834331 C65.4787627,19.0060815 66.0686567,20.0530786 66.6065012,21.1209461 C67.1061761,21.2566035 67.5260419,21.6357487 67.6821903,22.307079 C67.8730383,23.1314588 68.0604164,23.9558386 68.2477945,24.7802184 C68.2512645,24.7871752 68.2547345,24.7976104 68.2547345,24.8045672 C70.3991726,30.2204294 71.5338511,36.0258719 72.1584447,41.8174008 L72.1584447,41.8208792 C72.3215331,43.3200678 72.4499218,44.815778 72.5505508,46.3045314 C72.9044872,51.4282083 73.0536956,56.5692772 73.1335048,61.7103462 C73.2237239,67.4670912 73.2237239,73.2273145 73.313943,78.9736243 C73.4527416,87.9409286 73.5880702,96.9082329 73.7303388,105.875537 C73.7858582,109.493069 73.8413776,113.107122 73.8968971,116.728132 L73.8968971,116.73161 C74.0599854,127.041575 74.2230737,137.355019 74.3861621,147.668462 C74.5839501,160.176773 74.7817381,172.685084 74.979526,185.193396 L74.979526,185.196874 C75.0419854,189.162245 75.1044448,193.124138 75.1703741,197.086031 C75.2710031,203.514106 75.375102,209.938703 75.479201,216.3633 C75.6492292,226.655873 75.8261974,236.948446 75.9823458,247.241019 C76.0899147,247.700167 75.670049,260.107605 75.6873988,260.142389" id="Fill-4" fill="#F4F4F4"></path>
                    <path d="M68.3107822,22.2965779 C68.1205074,21.5627376 67.6088795,21.148289 67,21 C67.7399577,22.3079848 68.4038055,23.6425856 69,25 C68.7716702,24.0988593 68.5433404,23.1977186 68.3107822,22.2965779" id="Fill-6" fill="#231F20"></path>
                    <path d="M49,284.953934 C47.6975348,285 46.3881416,285.00941 45.0787483,284.992074 C43.4749148,271.892823 41.0327926,258.942664 37.8181976,246.072252 C29.757462,213.792204 17.962531,182.621674 8.96305063,150.61207 C7.18601697,144.291283 5.51290341,137.935824 4.002598,131.542225 C3.999134,131.538757 3.999134,131.538757 4.002598,131.53529 C4.1065181,126.022371 4.23122222,120.509452 4.36978235,115 C10.1754518,145.563762 20.4289013,175.045744 29.7921021,204.656014 C34.7456267,220.314091 39.4635991,236.062316 43.1458345,252.074052 C45.6329889,262.881454 47.7494948,273.883022 49,284.953934" id="Fill-8" fill="#CCCCC4"></path>
                    <path d="M27,284 C25.6361355,283.794348 24.2798846,283.543384 22.9371305,283.229678 C21.9785148,278.513631 20.9160779,273.808042 19.7498198,269.116395 C15.0328767,250.105814 9.03547224,231.478651 3.06921413,212.837545 C3.03460707,208.77331 3.01038212,205.026267 3.00346071,201.969376 C3,201.314079 3,200.655297 3,200 C5.89315068,209.170671 8.8555155,218.320428 11.7348234,227.480642 C16.680173,243.218225 21.3936554,259.053405 25.0755011,275.146521 C25.7472242,278.0849 26.3909156,281.037221 27,284" id="Fill-10" fill="#CCCCC4"></path>
                    <path d="M76,197 C75.9300459,196.885405 75.8705849,196.756919 75.8251148,196.614543 C71.7223076,183.943077 67.6229981,171.271611 63.5201909,158.596673 C56.290436,136.254056 48.6479519,113.991308 42.0477838,91.4576984 C35.7204366,69.8443241 31.0230197,47.2412628 33.8316763,24.6590371 C34.1079949,22.4574177 37.6196901,22.4365821 37.3433715,24.6590371 C35.7694045,37.3756465 36.5423972,50.2242141 38.7669371,62.8158104 C42.7333339,85.2660778 50.5611962,106.917651 57.5601026,128.562278 C63.6566013,147.414947 69.7286161,166.271088 75.8076263,185.127229 L75.8076263,185.130702 C75.8705849,189.089449 75.9335436,193.044725 76,197" id="Fill-12" fill="#CCCCC4"></path>
                    <path d="M74,117 C71.5630424,110.389871 69.2538006,103.734539 67.0757266,97.0340035 C59.2505383,72.933634 53.2962154,48.1899852 49.0298137,23.2064107 C48.6501177,20.9879667 52.0156045,20.0456495 52.3953005,22.271048 C53.6137793,29.3645054 54.9668776,36.4370998 56.4649507,43.4749223 C60.9867843,64.6927054 66.8202948,85.6288366 73.8343145,106.151183 C73.889543,109.767455 73.9447715,113.38025 74,117" id="Fill-14" fill="#CCCCC4"></path>
                    <path d="M75.9267287,260.440258 C75.902331,264.248139 75.4562003,268.021339 74.1108376,271.617671 C72.8247267,275.051006 70.6742376,277.759526 67.9591144,279.802187 C66.8925834,280.610235 65.7354321,281.314242 64.5120582,281.921145 C62.3545983,282.992761 59.9845293,283.755725 57.5064131,284.241247 C54.6658157,284.796129 51.752025,285.077039 48.8173219,285.177611 C47.5068132,285.223687 46.1893336,285.233099 44.8718541,285.215759 C41.0448897,285.174143 37.2109546,284.910574 33.4815813,284.657409 C31.3659462,284.511752 29.2224279,284.303671 27.0928512,283.984614 C25.7196054,283.780001 24.3533303,283.530304 23.0009968,283.218182 C18.0168811,282.070269 13.2767431,280.124713 9.39052705,276.753802 C5.91558765,273.743565 4.70964078,269.90794 3.89405822,265.448072 C3.15166896,261.411302 3.47232535,253.181702 3.47232535,253.181702 C3.46186916,252.484631 3.13772737,230.077784 2.99134076,213.181613 C2.9564868,209.137907 2.93208903,205.40979 2.92511824,202.368341 C2.92163285,201.716354 2.92163285,201.060899 2.92163285,200.408912 C2.8798081,178.22055 3.07499025,156.039124 3.49672312,133.857698 C3.5106647,133.150223 3.52460628,132.43928 3.54203326,131.731805 C3.53854787,131.728337 3.53854787,131.728337 3.54203326,131.724869 C3.64659513,126.210724 3.77206937,120.69658 3.91148519,115.185904 L3.91148519,115.182436 C4.32973266,98.6677466 4.88739596,82.1634616 5.57053349,65.6591766 C6.3547475,46.7064728 5.77965723,23.9979084 21.6033532,10.2056115 C28.0095103,4.62557479 36.6044958,1.65695367 45.1332588,3.73082683 C53.5992846,5.78735993 60.5596196,11.904939 65.0313821,19.0039664 C65.6726949,20.0235629 66.2652122,21.0674355 66.8054485,22.1321162 C67.3073455,22.2673688 67.7290783,22.6453825 67.8859211,23.3147094 C68.0776179,24.1366291 68.2658292,24.9585487 68.4540406,25.7804683 C68.457526,25.7874043 68.4610114,25.7978084 68.4610114,25.8047444 C70.6149859,31.2044443 71.7547102,36.9925619 72.3820814,42.7668074 L72.3820814,42.7702754 C72.545895,44.26499 72.6748547,45.7562366 72.7759311,47.2405472 C73.1314415,52.3489338 73.2813135,57.4746604 73.3614776,62.6003871 C73.4520979,68.3399525 73.4520979,74.0829859 73.5427182,79.8121472 C73.682134,88.7526907 73.8180644,97.6932343 73.9609656,106.633778 C74.016732,110.240514 74.0724983,113.843782 74.1282646,117.453986 L74.1282646,117.457454 C74.2920782,127.736651 74.4558918,138.019317 74.6197054,148.301982 C74.8183729,160.772965 75.0170405,173.243948 75.215708,185.714931 L75.215708,185.718399 C75.2784452,189.671937 75.3411823,193.622006 75.4074048,197.572076 C75.5084813,203.980968 75.6130431,210.386392 75.717605,216.791817 C75.8883894,227.053674 76.0661446,237.315532 76.2229874,247.577389 C76.3310346,248.035167 75.9093018,260.405578 75.9267287,260.440258 M78.4606113,168.031521 C78.1887505,151.395452 77.9168896,134.759382 77.638058,118.123313 L77.638058,118.119845 C77.6310872,117.707151 77.6241164,117.290989 77.6171456,116.878295 L77.6171456,116.874827 C77.5090983,110.344554 77.4010511,103.817749 77.2895184,97.2874765 C77.1082778,86.5054168 76.9270373,75.7233571 76.7457967,64.9412975 C76.7283697,63.9771892 76.7144281,63.0165489 76.6970012,62.0524407 C76.6935158,61.8686359 76.6900304,61.6848311 76.686545,61.5010262 L76.686545,61.4975582 C76.5087898,51.1594045 76.3240638,40.6651901 73.5845429,30.6114137 C71.1343098,21.6223179 66.4359966,13.2019767 58.9423961,7.24392637 C52.016915,1.74018603 43.2337182,-1.22496708 34.2971639,0.481296468 C25.5453356,2.14941184 18.1806947,7.99648569 13.1756667,14.9637285 C7.27489193,23.1794568 4.92573531,33.1985531 3.84177728,43.0095685 C2.59749106,54.2459382 2.52081236,65.6418366 2.11650647,76.9267584 C1.84464561,84.518244 1.59718253,92.1062616 1.381088,99.6977471 L1.381088,99.7012151 C1.25909915,103.852429 1.1475665,108.003644 1.04649002,112.154858 C0.983752903,114.644893 0.924501179,117.134928 0.868734849,119.624963 L0.868734849,119.628431 C0.387750259,140.7209 0.0914916341,161.816838 0.0182983268,182.912775 C0.0113275356,185.659443 0.00435674448,188.406111 0.000871348896,191.152779 C-0.00261404669,195.428842 0.00435674448,199.708373 0.0217837224,203.984436 C0.0705792606,219.777778 0.24484904,235.567652 0.537622269,251.357526 C0.593388598,257.703994 0.596873994,271.146021 5.15228602,276.171175 C10.1642849,281.699192 16.553015,284.719833 23.6039702,286.22842 C24.9458475,286.516265 26.3086372,286.748622 27.6923393,286.932427 C27.7585618,286.942831 27.8212989,286.953235 27.8875214,286.960171 C32.791473,287.598286 37.7546763,287.792495 42.6969672,287.938151 C43.5299768,287.962427 44.3664717,287.983236 45.2029667,287.990172 C46.5065046,288.007512 47.8100426,288.004044 49.1135805,287.962427 C51.1804201,287.903471 53.2437743,287.761283 55.2966723,287.497713 C63.250345,286.474649 70.9391277,283.270203 75.1494855,276.296024 C78.0040245,271.558715 78.9171981,266.072315 78.9415959,260.551234 C79.1263219,260.301537 78.8474902,191.614025 78.4606113,168.031521" id="Fill-16" fill="#231F20"></path>
                    <path d="M74,62 C71.0077822,49.0653665 68.0190889,36.1342412 65.0515419,23.1960996 C64.6991017,21.6630281 66.2286924,20.7438868 67.3702464,21.0631305 C67.8781128,21.1999492 68.3045655,21.5823401 68.4631636,22.2594174 C68.6570057,23.0908544 68.8473235,23.9222914 69.0376412,24.7537284 C69.0411656,24.7607447 69.0443376,24.7712692 69.0443376,24.7782856 C70.3698654,30.4966074 71.6915163,36.2184374 73.0092904,41.9367592 L73.0092904,41.9402674 C73.1752898,43.4522899 73.3056927,44.9608042 73.4079004,46.4623022 C73.7673894,51.6298409 73.9189387,56.8149205 74,62" id="Fill-18" fill="#CCCCC4"></path>
                    <path d="M68,279.878641 C66.9285807,280.687604 65.7668556,281.392409 64.5382761,282 C64.5137745,281.899314 64.4962734,281.795155 64.4892729,281.684053 C63.1871887,263.057063 59.8934757,241.527525 55.3291805,223.414383 C47.1841537,191.087094 35.2623826,159.874299 26.1722947,127.821293 C21.6079994,111.732295 17.7262484,95.4176211 15.4125987,78.8494947 C13.1094498,62.3577512 11.9928776,45.2757768 14.1735186,28.7111223 C14.4640374,26.4925488 17.9537631,26.3675588 17.782252,28.7111223 C17.0927074,38.2207825 16.7391845,47.6783634 17.1977142,57.2088552 C17.6457432,66.544918 18.7168124,75.8462614 20.2569121,85.0642781 C25.79077,118.214419 37.0299969,150.007028 47.2191559,181.941988 C52.2244797,197.617824 56.991788,213.387403 60.7125287,229.42085 C64.3002607,244.884897 67.3804599,263.768811 68,279.878641" id="Fill-20" fill="#CCCCC4"></path>
                </g>
            </g>
        </g>
    </g>
</svg>